<?xml version="1.0" encoding="utf-8"?>
<!-- Generator: Adobe Illustrator 23.0.2, SVG Export Plug-In . SVG Version: 6.00 Build 0)  -->
<svg version="1.1" id="Calque_1" xmlns="http://www.w3.org/2000/svg" xmlns:xlink="http://www.w3.org/1999/xlink" x="0px" y="0px"
	 viewBox="0 0 300 75" style="enable-background:new 0 0 300 75;" xml:space="preserve">
<style type="text/css">
	.st0{fill:#7E7E7E;}
</style>
<polygon class="st0" points="118.2,28 116.6,28 107.6,36.9 107.6,36.9 106.8,37.7 116.2,47 117.7,47 108.4,37.7 "/>
<polygon class="st0" points="43.2,28 41.6,28 32.6,36.9 32.6,36.9 31.8,37.7 41.2,47 42.7,47 33.4,37.7 "/>
<polygon class="st0" points="181.8,28 183.4,28 192.4,36.9 192.4,36.9 193.2,37.7 183.8,47 182.3,47 191.6,37.7 "/>
<polygon class="st0" points="256.8,28 258.4,28 267.4,36.9 267.4,36.9 268.2,37.7 258.8,47 257.3,47 266.6,37.7 "/>
</svg>
